<?xml version="1.0" encoding="utf-8"?>
<!-- Generator: Adobe Illustrator 26.1.0, SVG Export Plug-In . SVG Version: 6.00 Build 0)  -->
<svg version="1.1" id="Capa_1" xmlns="http://www.w3.org/2000/svg" xmlns:xlink="http://www.w3.org/1999/xlink" x="0px" y="0px"
	 width="3000px" height="3000px" viewBox="0 0 3000 3000" style="enable-background:new 0 0 3000 3000;" xml:space="preserve">
<style type="text/css">
	.st0{opacity:5.000000e-02;}
	.st1{fill-rule:evenodd;clip-rule:evenodd;fill:none;stroke:#010202;stroke-width:2;stroke-miterlimit:10;}
</style>
<g class="st0">
	<g>
		<path class="st1" d="M2733.9,2327.1c-47,31.4-93.2,64.1-141.2,93.9c-130.8,81.4-269.7,144.4-420.1,180.6
			c-98,23.6-197.4,33.8-298,27.2c-144.2-9.4-278.6-50.5-399.6-130.7c-59.7-39.5-113-86.5-152.3-147.4c-11-17.1-10.1-22.9,6.9-32.8
			c41.4-24.1,78.2-53.2,104-94.4c38.3-61.2,32.1-123.4-19.4-173.7c-19.7-19.2-43.1-34.7-65.3-51.2c-3.3-2.4-10.8-2.7-14.4-0.6
			c-47.4,27.6-97.7,40.6-152.8,32.9c-3.5-0.5-9.8,4.9-11.6,9c-10.4,24.3-22.2,48.3-29.2,73.6c-17.4,63-3.8,123.9,18,183.3
			c22.6,61.5,57.6,115.9,99,166.6c75.4,92.1,166.9,164.5,271.2,220.7c93.7,50.5,193,84.5,299.4,95.6c26.6,2.8,53.3,4.9,80.1,6.5
			c7.6,0.5,13.3,3.3,13.1,10c-0.2,5.6-4.1,11.9-8.1,16.3c-2.2,2.4-8.1,2.1-12.3,2c-89.9-1.3-177-17.7-261.5-48.1
			c-103.2-37.2-197.1-90.6-281.7-160.3c-80.7-66.5-150.1-142.8-199.5-235.8c-36.5-68.8-58.7-141.4-53.9-220.3
			c2.5-41.2,14-79.9,34-116c1.9-3.4,3.6-6.8,5.3-9.8c-21-10.9-41.6-21-61.6-32c-10.2-5.7-19.7-12.7-29-19.8
			c-5.4-4.2-9.3-3.8-14.4,0.2c-17.4,13.7-27.4,32.6-32.6,53c-8.5,33.6-17,67.6-20.4,101.9c-3.9,39.8-4.1,80.2-2.8,120.3
			c3.6,112.3,33,216.2,103.1,306.5c52.3,67.4,114.7,123.7,185.5,170.8c103.5,68.8,216.5,116.4,335.9,149.5
			c71.3,19.7,143.7,33.4,217.3,41.5c75.6,8.3,151.4,11,227.3,6.8c6.6-0.4,13.2-1,19.8-1.6c-27.8,11.1-55.6,22.2-83.4,33.3
			c-32.1-0.9-64.3-0.1-96.2-3.2c-58.6-5.7-117.4-11.4-175.5-21.1c-92.3-15.4-181.8-42.3-268.5-77.9
			c-95.6-39.2-185.2-88.9-265.2-154.7c-87.1-71.6-157.6-156.2-197.7-263.2c-17.6-46.8-25.6-95.8-29.3-145.5
			c-2.6-34.3-4.8-68.8-4.2-103.1c1-60.3,5.8-120.6,28.2-177.4c7.3-18.5,19.9-35,31.1-51.7c3.7-5.5,10.4-9.5,16.4-13
			c19.1-11.1,24.7-10.1,42.1,3.2c32.6,24.9,67.7,44.7,108.5,53c25,5.1,49.6,4.2,74.4-1.1c64.6-13.8,108.3-55.3,139.7-110
			c42.2-73.4,47.5-149.9,8.2-226.4c-31.8-61.9-85.2-97.5-151.7-113.8c-20-4.9-40.8-6.7-61.4-8.9c-5.5-0.6-11.6,1.4-16.9,3.5
			c-63.8,25.3-121.6,60.5-173,106c-92.8,82.2-153,184.2-186,303.1c-17.4,62.6-24.6,126.4-24,191.3c0.2,20.7-1.1,41.8,2.4,62.1
			c9.3,54.1,19,108.2,37.5,160.2c38.5,108.5,97.9,203.8,177.2,287.1c102.9,108,225.9,185.9,363.4,241.2
			c53.5,21.5,109,37.9,163.7,56.4c12,4.1,17.3,10.4,13.7,20.2c-3.6,9.8-11.5,12.1-21,8.9c-60.2-20.6-121.2-39-180.3-62.5
			c-87.5-34.8-168.9-81.4-244-138.4c-156.7-119.1-268.3-269.4-319-461.8c-20-76-27.3-153.3-22.3-231.4
			c8.9-137.5,53.3-262.5,137.1-372.7c7.8-10.3,16.1-20.2,24.6-29.9c8.2-9.4,16.9-18.4,22.1-24c-17.2-19.3-33.4-38.4-50.5-56.6
			c-8.2-8.8-17.8-16.4-27.6-23.5c-3.6-2.6-10.3-3.7-14.3-2.2c-28.6,11.2-49.2,33-67.8,56.2c-56.6,70.6-91.7,152.3-119.5,237.4
			c-20.3,62.1-34.2,125.8-42.5,190.5c-10.2,79.4-10.9,158.9-0.8,238.5c14.8,116,52.5,223.2,121.3,318.6
			c10.3,14.2,21.7,27.6,32.8,41.2c7.4,9.1,7.9,17.4,0.9,23.9c-6.7,6.2-16.4,5.2-23.7-3.2c-50.4-58.7-89.3-124.3-117-196.4
			c-24.3-63.5-39.3-129.3-46.5-196.8c-6.4-60.8-6.6-121.7-1.4-182.8c7.9-93.2,27.1-183.8,57.9-272c22.9-65.6,52.7-127.8,90.5-186.3
			c24-37.1,53.8-67.6,91.2-90.7c8.2-5,17.7-8,27-11c8.6-2.7,16.8-1.3,24,5.2c30.7,27.7,61.6,55.2,92.4,82.8
			c20.8-16.1,42.1-33.7,64.6-49.6c37.8-26.7,78.4-48.4,121.4-65.7c4.4-1.8,9.4-4.9,11.5-8.9c14.2-26.8,24.5-55.2,26.3-85.6
			c2.9-49.1-18.1-86.9-57.8-114.8c-37.7-26.5-80.6-39.7-125.5-45.3c-137.5-17.2-266,10.8-384.5,82.2
			c-56.2,33.9-102.5,79.4-142.9,130.8c-85.4,108.6-135.9,233.1-165,367c-14.5,66.9-22.9,134.7-26.7,203.1
			c-4,72.9-2.2,145.6,5.5,218.1c11.5,108,32.9,213.8,74.9,314.5c23.1,55.3,56.7,104.1,97.8,147.7c5.3,5.7,10.5,11.5,15.7,17.3
			c-4.3-1.6-9.6-2.1-12.8-4.9c-32.1-27.9-65.3-54.7-94.9-85c-13.5-13.9-20.6-34.5-29-52.8c-26.4-57.6-42.9-118.4-56.6-180
			c-15.2-67.9-26.5-136.5-28.4-206.2c-1.7-58.6-3.5-117.3-1.5-175.8c2.1-62.8,11.2-125,23.7-186.7c17.5-86.5,43.8-170,82.3-249.4
			c43.9-90.5,101.7-171,178.2-236.8c66.2-56.9,142.8-93.8,227.1-116c56.3-14.8,113.3-23.4,171.4-22.3
			c66.5,1.2,131.6,11.1,190.7,44.5c44,24.9,76,59.9,85.8,111c7.5,39.1,0.1,76.8-14.7,113.3c-1,2.5-2,5.1-2.8,7.7
			c-0.6,1.8-0.8,3.8-1.4,7c113.3,12.3,202.7,60.7,240.6,173.8c37,110.6,3.4,206.2-76,288c17.4,13.2,35.3,25.5,51.8,39.5
			c35.1,29.9,60.7,65.8,67.9,112.7c6.2,40.6-3.7,77.6-24.7,112c-25.1,41.1-60.1,72.6-100.5,98c-8.3,5.2-8,8.8-3.1,15.4
			c29,38.2,63.2,70.9,101.2,100.1c45.2,34.6,94.2,62.7,146.2,85.1c32.8,14.2,67.1,25.6,101.5,35.2c35.2,9.8,71.2,17.9,107.3,22.8
			c55.7,7.6,112,11.5,168.3,6.1c33.8-3.2,67.8-4.8,101.2-10.2c38.1-6.2,75.9-14.4,113.2-24.1c84.4-22.1,165.1-54.4,243.3-92.9
			c70.7-34.9,138.7-74.6,203.8-118.9c40.3-27.4,79.1-56.9,118.6-85.4c1.2-0.9,2.5-1.6,5.1-1.6
			C2759.3,2287.6,2747.4,2307.7,2733.9,2327.1z"/>
		<path class="st1" d="M118.7,2340.5C128.8,2357,108.5,2324.1,118.7,2340.5c1.6,2.5-5.1-12.3-0.7-10.2c-0.3-4.6-0.2-9.2-0.8-13.7
			c-4.6-37.2-11-74.3-13.6-111.6c-4.4-62-9.3-124.1-8.7-186.1c1.7-187.6,35-369.2,111.8-541.5c41.6-93.3,94.1-179.8,158.5-259.2
			c77.8-95.9,168.1-177.5,273-242.6c61.3-38.1,125.9-69.1,195.3-89.8c35.6-10.6,71.8-14.6,108.8-12.6c11.2,0.6,14.6,9.5,9.2,21.4
			c-9.6,20.9-20.3,41.5-27.7,63.2c-13.3,39.4-15.3,79.6-2.3,119.8c20.1,62.1,73.8,92.7,137.6,78.9c48.6-10.5,88.8-36.9,127.9-66
			c44.1-32.8,66.7-78.2,76.1-130.1c9.1-50.4-8.9-93.3-46.4-127.5c-42.9-39.2-95.4-58.7-151.4-69.7c-83.7-16.5-167.3-12.8-250.5,4.4
			C686,794.1,570.9,849.9,468.5,931.7c-85.2,68-154.4,150.2-209.8,244c-65.5,110.8-108,230.4-133.5,356.1
			c-5.7,27.9-10,56.1-14.7,84.3c-2.5,15.3-7.9,20.9-19.5,19.1c-9.2-1.4-13-8.7-10.7-23.5c3.5-23.2,7-46.4,11.6-69.3
			c16.7-83.7,39.6-165.6,72.3-244.6c39.7-95.9,91.3-184.6,158-264.5c87.7-104.9,193.4-185.9,318.3-241.6
			c72.6-32.3,148.3-54.3,227.1-63.4c85.5-9.9,170.7-8.8,253.7,18.1c50.9,16.5,97.5,40.4,132.8,81.9c22.7,26.8,36.4,57.1,39.3,93.2
			c4.7,56.8-14.4,105.6-45.6,150.6c-9.7,13.9-10.4,23.8-2.1,38.3c16.8,29.4,34.7,57.7,60.9,79.6c39.4,32.8,85.6,42.4,134.4,32.2
			c42.2-8.9,86-17.4,124.4-35.8c85.1-40.9,126-114.6,101.7-210.1c-14.7-57.7-45.6-107-84.3-151.3
			c-116.9-133.8-265.6-215.7-434.6-263.5c-87.2-24.6-176.3-35.1-266.8-30.5c-70.1,3.6-138.8,15.8-205.4,38.9
			c-4,1.4-8.2,2.7-12.4,3.2c-8.6,1.1-14.8-2.6-16.4-11.3c-1.5-8.1,1.4-15,10-17.4c34.2-9.6,68.1-20.5,102.7-27.9
			c26.9-5.7,54.8-7.6,82.3-10c32.1-2.8,64.3-5.7,96.5-6c22.4-0.2,44.7,5.6,67.1,5.9c49.4,0.8,96.9,11.9,144,24.3
			c123.1,32.4,236,86.4,337.7,163.2c40.3,30.4,78.2,63.8,110.7,102.7c6.1,7.3,11.8,8.9,21.2,6.4c33.6-9,67.8-15.6,98.7-32.5
			c15.3-8.4,16.4-10.4,11.5-26.7c-8.2-27.1-26.4-47.5-45.6-67.2c-43.8-45-95.3-79.5-149.5-110.2c-101.7-57.6-210-98.2-323.9-123.9
			c-89.2-20.1-179.7-30.2-271.2-26.9c-175.8,6.3-336.7,57.3-477.8,164.3c-33.5,25.4-66.2,52.8-95.5,82.8
			c-89,91.1-157.7,196.5-211.2,311.8c-12.8,27.6-24.6,55.8-36.8,83.7c-3.9,9-10.6,12.8-19.6,9.3c-9.3-3.6-11-11.4-8.2-20.4
			c0.3-1.1,0.8-2.2,1.3-3.3c20.7-45.1,40-90.9,62.3-135.1c39.6-78.4,87.9-151.4,145.4-218c111.3-128.7,246.3-221.3,410.8-269.1
			c58-16.8,116.8-28.3,177-32.4c33.7-2.3,67.6-3.9,101.4-4c27.1-0.1,54.4,1.7,81.4,4.4c146.1,14.5,285.6,53.4,417.6,117.6
			c80.8,39.3,157.5,85.2,220.8,150.4c25.2,26,47.9,54,53.3,91.7c2.5,17.1-1.3,30.9-17.3,41.2c-29.2,18.6-61.9,27.4-94.7,36.1
			c-6.7,1.8-13.4,3.5-20.5,5.3c11.8,18.9,24.1,36.4,34.2,55.2c20.8,38.7,36.1,78.8,39.2,123.8c3.4,50.6-7.1,95.9-38.9,135.1
			c-13.6,16.8-31.1,30.5-46.9,45.6c-1.9,1.8-4,3.4-8.6,7.3c16,4.2,29.5,9.5,43.5,11c30.6,3.2,61.9,8.7,92,5.3
			c29.2-3.2,58.6-13.6,85.8-25.6c81.9-36.2,138-99.4,177.2-178.4c27.1-54.5,41.3-112.4,45.5-173.3c8.1-117.3-26.9-221.9-90.8-318.2
			c-51.5-77.5-116.2-142.9-188.4-201.3c-89.3-72.2-186.4-131.5-291.5-177.6c-92.8-40.6-189.2-68.9-289.7-83
			c-61.7-8.7-123-9.1-184.5,0.3c-3.8,0.6-7.6,1.3-11.4,1.9c27.4-7.1,54.4-15.6,82.1-21c30.9-6.1,62.4-13.1,93.7-12.9
			c30.8,0.2,62.1,7,92.3,14.2c48.9,11.7,97.6,24.6,145.5,39.8c33.7,10.7,66.2,25.4,98.5,39.7c91,40.1,175.1,91.9,254.4,151.7
			c49.9,37.6,97,78.5,139.5,124.1c42,45.1,79.7,93.9,110,148c25.3,45.2,44.5,92.6,57.3,143c13.4,52.6,16.6,106,12.9,159.5
			c-5.3,77.1-27.9,149.2-68.5,215.5c-28.4,46.4-63.6,86.5-107.7,118.6c-53.9,39.3-113.5,62.3-180.9,65.2
			c-50.6,2.2-98.7-6.9-145.2-25.7c-10.6-4.3-18.2,1.6-26.4,4.4c-51.5,17.8-103.3,32.9-158.8,30.5c-52.8-2.3-96-24.2-129.4-63.6
			c-18.6-22.1-32.8-47.9-48.3-72.6c-5.4-8.6-9.3-4.7-14.9-1.2c-26.3,16.6-51.9,34.8-79.5,49c-41.7,21.5-86.5,29.8-132.9,17.6
			c-44.3-11.6-74.4-40.5-91.1-82.2c-25-62.8-17.5-124.7,8.5-185.5c1.8-4.2,3.3-8.6,5.8-15.2c-14.9,2.2-28,3.2-40.7,6.2
			C825,918,780.5,935.1,737,955.8c-65.8,31.4-126.8,70.5-183.2,116.3c-37.4,30.4-72.1,64.4-106.2,98.5
			c-53.3,53.4-98.5,113.7-138.4,177.7c-51.6,82.9-91.9,171-121.6,264.1c-20.1,63-36,127-45.4,192.3c-7.4,51.3-11,103.2-15.1,155
			c-2.1,27.3-3.3,54.8-2.1,82.1c2.8,62.8,5.4,125.8,11.6,188.4c5.2,52.7,15.3,105,23.1,157.5c0.5,3.4,0.1,6.9-2.6,12
			c-4-5.6-8.4-10.9-12-16.7C124.4,2349.9,139,2373.7,118.7,2340.5C153.1,2387.4,119.8,2343.8,118.7,2340.5z"/>
		<path class="st1" d="M1747.3,38.3c95.3,48.9,184.6,107,264.9,178c131,115.8,229.7,254,286.8,420.4c10.1,29.6,17.5,60.1,26.4,90.2
			c17.4,59.1,25.7,119.9,28.8,181.1c2.6,51.1,1.2,102.5-1.3,153.7c-2.9,56.9-11.7,113.2-28.3,168c-6.1,20.1-14.7,39.4-22.7,58.9
			c-3.3,8-8.8,14-18.8,12.9c-8.9-1-11.6-7.4-14.2-14.9c-13.3-37-33-69.8-64.6-94.5c-61.5-48.3-139.1-33.3-178.5,34.2
			c-28.5,48.9-37.1,102.2-37.6,157.7c-0.1,7.8,5.1,8.6,9.9,10.7c48.5,20.7,87.8,52.1,114.1,98.5c16,28.2,22.4,58.9,23.9,90.9
			c0.1,2.6,0.4,5.3,0.9,11.4c20.3-3.1,40.2-4.5,59.1-9.4c46.8-12,86.5-37.7,122.1-69.4c104.1-92.3,170.6-209.4,219.9-337.4
			c23-59.7,39.1-121.3,46.4-184.8c6-51.5,6.1-103-11-153.2c-3.8-11.1-0.3-19.7,8.2-22.4c9.6-3.1,16.7,1.5,20.6,13.5
			c13.9,43,17.9,87.2,14.3,132.1c-14,178.7-83.2,336-188.4,478.5c-42.4,57.5-92.9,107.6-155.7,143.6c-45,25.8-93,39.8-145.4,36.9
			c-16.3-0.9-22.7-5.8-21.9-20.4c4.6-82.8-35.6-138.6-106.7-174.2c-30.9-15.5-63-30.3-96.1-39.4c-68.9-18.9-128.8,2-179.5,50.7
			c-39.9,38.2-67.3,84.9-88.9,135.2c-32.5,75.6-50.3,155-59.8,236.6c-5.5,47.6-6,95.2-3.7,142.6c3.2,65,13.7,129,41.4,188.9
			c14.9,32.3,38.1,58.2,64.4,81.2c98.9,86.8,215.5,137.2,343.6,161.2c151.1,28.3,294.6,5.4,430.2-68
			c92.3-50,176.2-111.5,254.3-181.1c31.8-28.4,62.4-58.1,93.8-87c53.1-48.9,85.8-110.6,110.9-177.1c3.7-9.8,6.8-19.9,10.2-29.9
			c-5.2,26.2-10.2,52.5-15.7,78.6c-2.8,13-7.3,25.6-9.7,38.7c-7.5,40.8-33.2,70.6-61.4,97.5c-55.1,52.4-110.8,104.4-168.8,153.4
			c-61.2,51.6-127.8,96.1-198.9,133.4c-66.8,35-136.6,61.9-211.2,74.6c-52.2,8.9-104.9,9.8-157.9,6.3c-50.5-3.3-100.1-11.7-148.7-25
			c-50.5-13.8-99.3-32.5-146.3-56.1c-47.7-23.9-92.4-52.1-133-86.7c-29.8-25.4-57.1-53.1-76.4-87.6c-17.7-31.6-27.4-66.2-35.6-101.2
			c-15.4-65.2-18.3-131.6-15.9-198.1c1.9-52.3,8.7-104.1,19.3-155.5c13.3-64.6,33.5-126.8,63-185.8c24.6-49.2,55.8-93.8,99.3-128.1
			c62.2-49.1,131.8-61.2,207.4-35.8c6.6,2.2,13.1,4.5,19.8,6.5c2.5,0.8,5.3,1,8.2,1.5c2.7-22.5,4.3-44.7,8.3-66.5
			c10.3-57,30.5-109.6,78.7-145.6c41.4-30.9,87.9-36.2,136.4-17.4c45.6,17.6,76.7,51,99.7,93c1.6,2.9,3.7,5.4,7.8,11.4
			c5.8-20.4,11.3-37.2,15.3-54.4c12-51.5,18.3-103.7,21.8-156.4c4.2-63.1,1.1-125.8-6.7-188.4c-7.2-57.9-19.7-114.4-36.8-170.2
			c-25.7-83.9-63.1-162-110.7-235.4c-42-64.7-91.7-123-147.7-176c-64.8-61.4-135.6-115-213.1-159.4c-41.9-24-85.4-45.2-128.2-67.6
			c-13.7-7.1-27.6-13.7-41.1-21.9C1676.6,23.4,1713,24.8,1747.3,38.3z"/>
	</g>
	<path class="st1" d="M2013.1,1900.9c12.9,17.6,22.8,33.5,34.9,47.5c48.5,55.8,111,83.8,183.8,90.9c8.7,0.9,17.5,4.5,26,4
		c72.4-3.8,141.9-19.8,206.9-52.8c135.2-68.7,231.6-174.8,296.5-310.4c36.1-75.3,57.3-155.1,66.4-238.1c9-81.8,6.3-163.2-6.9-244.3
		c-1.8-11,3.1-18.6,12.8-19.9c9-1.3,15.8,4,17.1,15.1c3,25.5,6.2,51.1,7.7,76.8c2.2,35.4,5,70.9,3.9,106.2
		c-5.5,170.3-55.5,325.6-162.1,460.1c-76.6,96.7-171.6,169.7-289.4,209.7c-87.3,29.7-175.8,37.2-264.4,5.6
		c-76.8-27.4-131.1-80-167.5-152.3c-2.8-5.6-8.7-11.4-14.4-13.3c-68.1-23.6-127.5-60.8-176.9-113.3c-29.4-31.2-53.5-66.3-72.2-104.9
		c-4.6-9.6-2.3-18.2,5.5-21.9c8.8-4.2,16.8-1,22,9.4c22.8,45.6,52.8,85.8,90.8,119.8c59.7,53.7,129.9,86.8,208.7,99.5
		c169.7,27.4,319.9-19.3,451.8-126.7c108-88,173.7-203.2,208.5-337.1c22.9-88.4,28.6-178.3,22.9-268.9c-7.7-122.4-35-241-77-356.1
		c-20.9-57.2-45.5-113.1-68.6-169.5c-4.2-10.2-2.4-19.6,5.3-23.3c8.9-4.3,17-0.7,22.3,10.6c32.8,70.2,61.3,142.1,84.7,215.9
		c24.3,76.8,44,154.9,54.7,234.9c9.5,71.1,12.9,142.5,8.2,214.3c-5,75.8-18.8,149.7-45.2,220.9c-62.1,167.4-171.4,292.5-334.1,368.7
		c-56.6,26.5-116.2,42.8-178.5,50.2c-59.1,7.1-117.6,5.1-175.8-7.2C2020.3,1900.6,2018.7,1900.9,2013.1,1900.9z"/>
</g>
</svg>
