<?xml version="1.0" encoding="utf-8"?>
<!-- Generator: Adobe Illustrator 26.1.0, SVG Export Plug-In . SVG Version: 6.00 Build 0)  -->
<svg version="1.1" id="Capa_1" xmlns="http://www.w3.org/2000/svg" xmlns:xlink="http://www.w3.org/1999/xlink" x="0px" y="0px"
	 width="32px" height="100px" viewBox="0 0 32 100" style="enable-background:new 0 0 32 100;" xml:space="preserve">
<style type="text/css">
	.st0{fill:#FFFFFF;}
</style>
<rect width="32" height="100"/>
<g>
	<path class="st0" d="M16,10.8c-2.8,0-5.1,2.2-5.1,5.1S13.2,21,16,21s5.1-2.3,5.1-5.1S18.8,10.8,16,10.8z M16,19.2
		c-1.8,0-3.2-1.5-3.2-3.2s1.4-3.3,3.2-3.3c1.8,0,3.2,1.5,3.2,3.2C19.2,17.7,17.8,19.2,16,19.2z"/>
	<circle class="st0" cx="21.3" cy="10.8" r="1.2"/>
	<path class="st0" d="M24.3,7.8c-1-1.1-2.5-1.7-4.2-1.7h-8.2c-3.5,0-5.8,2.3-5.8,5.8v8.2c0,1.7,0.6,3.2,1.7,4.2
		c1.1,1,2.5,1.6,4.2,1.6h8.2c1.7,0,3.2-0.6,4.2-1.6c1.1-1,1.7-2.5,1.7-4.2v-8.2C25.9,10.2,25.3,8.8,24.3,7.8z M24.2,20.1
		c0,1.2-0.4,2.2-1.2,2.9c-0.7,0.7-1.7,1-2.9,1h-8.2c-1.2,0-2.2-0.3-2.9-1c-0.7-0.7-1.1-1.7-1.1-3v-8.2c0-1.2,0.3-2.2,1.1-2.9
		c0.7-0.7,1.7-1,2.9-1h8.2c1.2,0,2.2,0.3,2.9,1.1c0.7,0.7,1.1,1.7,1.1,2.9V20.1L24.2,20.1z"/>
</g>
<g>
	<path class="st0" d="M19.1,89.9c-0.2,0.5-0.5,0.9-0.9,1.2s-0.9,0.4-1.4,0.5v-2.2c0.3,0,0.6-0.1,0.7-0.3c0.2-0.2,0.2-0.4,0.2-0.7
		c0-0.3-0.1-0.5-0.2-0.7c-0.1-0.2-0.3-0.3-0.6-0.3c-0.2,0-0.4,0.1-0.5,0.2c-0.1,0.1-0.2,0.3-0.3,0.5c-0.1,0.2-0.2,0.5-0.3,0.9
		c-0.2,0.5-0.3,1-0.5,1.3c-0.2,0.3-0.4,0.6-0.7,0.9s-0.8,0.4-1.3,0.4c-0.8,0-1.4-0.3-1.8-0.9s-0.7-1.3-0.7-2.2
		c0-0.9,0.2-1.7,0.7-2.2c0.4-0.6,1.1-0.9,1.9-0.9v2.2c-0.3,0-0.5,0.1-0.6,0.3c-0.2,0.2-0.2,0.4-0.2,0.7c0,0.2,0.1,0.4,0.2,0.6
		c0.1,0.2,0.3,0.2,0.6,0.2c0.3,0,0.5-0.1,0.6-0.4c0.2-0.3,0.3-0.7,0.5-1.2c0.2-0.5,0.4-1,0.5-1.3s0.4-0.6,0.7-0.9
		c0.3-0.2,0.7-0.4,1.2-0.4c0.5,0,0.9,0.1,1.3,0.4c0.4,0.2,0.7,0.6,0.9,1.1c0.2,0.5,0.3,1,0.3,1.6C19.4,88.8,19.3,89.4,19.1,89.9z"/>
	<path class="st0" d="M11,81.3l1.2,2.9h-1.4l-1.4-2.9H11z M12.6,81.7h6.7v2.1h-6.7V81.7z"/>
	<path class="st0" d="M12.8,76.2c0.2-0.4,0.4-0.6,0.8-0.8h-0.9v-2.1h6.7c0.6,0,1.2,0.1,1.7,0.4c0.5,0.2,0.9,0.6,1.2,1.1
		s0.4,1.1,0.4,1.9c0,1-0.2,1.8-0.7,2.4c-0.5,0.6-1.1,1-1.9,1.1v-2c0.3-0.1,0.5-0.2,0.6-0.5c0.1-0.2,0.2-0.5,0.2-0.9
		c0-0.4-0.1-0.8-0.4-1c-0.2-0.3-0.6-0.4-1.2-0.4h-0.9c0.3,0.2,0.6,0.5,0.8,0.8c0.2,0.4,0.3,0.8,0.3,1.2c0,0.6-0.1,1.1-0.4,1.5
		c-0.3,0.4-0.7,0.8-1.2,1.1c-0.5,0.3-1.1,0.4-1.8,0.4s-1.3-0.1-1.8-0.4c-0.5-0.3-0.9-0.6-1.2-1.1c-0.3-0.4-0.4-0.9-0.4-1.5
		C12.5,77,12.6,76.6,12.8,76.2z M14.8,75.8c-0.3,0.3-0.4,0.6-0.4,1c0,0.4,0.1,0.8,0.4,1c0.3,0.3,0.7,0.4,1.2,0.4
		c0.5,0,0.9-0.1,1.2-0.4c0.3-0.3,0.5-0.6,0.5-1c0-0.4-0.1-0.8-0.4-1c-0.3-0.3-0.7-0.4-1.2-0.4C15.5,75.4,15.1,75.6,14.8,75.8z"/>
	<path class="st0" d="M12.6,65.3h6.7v2.1h-0.9c0.3,0.2,0.5,0.5,0.7,0.8c0.2,0.4,0.3,0.8,0.3,1.2c0,0.5-0.1,1-0.3,1.4s-0.6,0.7-1,0.9
		c-0.4,0.2-0.9,0.3-1.5,0.3h-3.9v-2h3.6c0.4,0,0.8-0.1,1-0.3c0.2-0.2,0.4-0.5,0.4-0.9c0-0.4-0.1-0.7-0.4-0.9c-0.2-0.2-0.6-0.3-1-0.3
		h-3.6V65.3z"/>
	<path class="st0" d="M16.5,57.5v4.6c0.4,0,0.7-0.2,1-0.4s0.3-0.5,0.3-0.9c0-0.5-0.2-0.9-0.6-1.1v-2.2c0.4,0.1,0.8,0.3,1.2,0.6
		c0.4,0.3,0.6,0.7,0.8,1.1c0.2,0.4,0.3,0.9,0.3,1.5c0,0.7-0.1,1.2-0.4,1.8c-0.3,0.5-0.7,0.9-1.2,1.2s-1.1,0.4-1.8,0.4
		c-0.7,0-1.3-0.1-1.8-0.4c-0.5-0.3-0.9-0.7-1.2-1.2c-0.3-0.5-0.4-1.1-0.4-1.8c0-0.6,0.1-1.2,0.4-1.7c0.3-0.5,0.7-0.9,1.2-1.2
		c0.5-0.3,1.1-0.4,1.8-0.4C16.1,57.5,16.3,57.5,16.5,57.5z M15.3,59.6c-0.4,0-0.6,0.1-0.8,0.4c-0.2,0.2-0.3,0.5-0.3,0.9
		c0,0.3,0.1,0.6,0.3,0.9c0.2,0.2,0.5,0.4,0.9,0.4V59.6z"/>
	<path class="st0" d="M13.3,50.4c0.5-0.5,1.2-0.7,2.1-0.7h3.9v2h-3.6c-0.4,0-0.8,0.1-1,0.3c-0.2,0.2-0.4,0.5-0.4,0.9
		c0,0.4,0.1,0.7,0.4,0.9c0.2,0.2,0.6,0.3,1,0.3h3.6v2.1h-6.7v-2.1h0.9c-0.3-0.2-0.5-0.5-0.7-0.8c-0.2-0.4-0.3-0.7-0.3-1.2
		C12.6,51.5,12.8,50.9,13.3,50.4z"/>
	<path class="st0" d="M19,47c-0.3,0.5-0.7,0.9-1.2,1.2c-0.5,0.3-1.1,0.5-1.8,0.5c-0.7,0-1.3-0.2-1.8-0.5C13.6,48,13.2,47.5,13,47
		c-0.3-0.5-0.4-1.1-0.4-1.8s0.1-1.2,0.4-1.8c0.3-0.5,0.7-0.9,1.2-1.2s1.1-0.5,1.8-0.5c0.7,0,1.3,0.2,1.8,0.5s0.9,0.7,1.2,1.3
		c0.3,0.5,0.4,1.1,0.4,1.8C19.4,45.9,19.3,46.5,19,47z M17.2,44.3c-0.3-0.3-0.7-0.4-1.2-0.4c-0.5,0-0.9,0.1-1.2,0.4
		c-0.3,0.3-0.4,0.6-0.4,1c0,0.4,0.1,0.7,0.4,1c0.3,0.3,0.7,0.4,1.2,0.4c0.5,0,0.9-0.1,1.2-0.4c0.3-0.3,0.4-0.6,0.4-1
		S17.5,44.5,17.2,44.3z"/>
	<path class="st0" d="M19.1,39.5c-0.2,0.5-0.5,0.8-0.8,1.1C18,40.9,17.6,41,17.1,41v-2c0.2,0,0.4-0.1,0.6-0.3
		c0.1-0.2,0.2-0.4,0.2-0.7c0-0.3,0-0.5-0.1-0.6c-0.1-0.1-0.2-0.2-0.4-0.2c-0.2,0-0.3,0.1-0.4,0.3c-0.1,0.2-0.2,0.5-0.3,1
		c-0.1,0.5-0.2,0.9-0.4,1.2s-0.3,0.6-0.6,0.8c-0.3,0.2-0.6,0.3-1.1,0.3c-0.4,0-0.7-0.1-1.1-0.3c-0.3-0.2-0.6-0.5-0.8-0.9
		c-0.2-0.4-0.3-0.9-0.3-1.5c0-0.8,0.2-1.5,0.6-2c0.4-0.5,1-0.8,1.7-0.8v1.9c-0.2,0-0.4,0.1-0.6,0.3c-0.1,0.2-0.2,0.4-0.2,0.7
		c0,0.2,0,0.4,0.1,0.6s0.2,0.2,0.4,0.2c0.2,0,0.3-0.1,0.4-0.3c0.1-0.2,0.2-0.5,0.3-1c0.1-0.5,0.3-0.9,0.4-1.2s0.3-0.6,0.6-0.8
		c0.3-0.2,0.6-0.4,1.1-0.4c0.4,0,0.7,0.1,1,0.3c0.3,0.2,0.6,0.5,0.7,0.9s0.3,0.9,0.3,1.4C19.4,38.5,19.3,39.1,19.1,39.5z"/>
</g>
</svg>
