<?xml version="1.0" encoding="utf-8"?>
<!-- Generator: Adobe Illustrator 26.1.0, SVG Export Plug-In . SVG Version: 6.00 Build 0)  -->
<svg version="1.1" id="Capa_1" xmlns="http://www.w3.org/2000/svg" xmlns:xlink="http://www.w3.org/1999/xlink" x="0px" y="0px"
	 width="180px" height="320px" viewBox="0 0 180 320" style="enable-background:new 0 0 180 320;" xml:space="preserve">
<style type="text/css">
	.st0{fill:#020203;}
</style>
<path class="st0" d="M72.7,103.2c-14.3,16.9-32.3,30.8-54.2,41.7l1.4,2.3c24.3-5.8,44.9-15,61.9-27.6v30.8c0,1.6,1.6,2.4,4.8,2.4
	c4.3,0,8-1.6,10.9-4.8v-36.8c12.1,18.4,28.6,30.9,49.5,37.4c2.7-6.8,7.3-12.4,13.9-16.9c-24.6-5.4-44.7-14.9-60.4-28.4h56.8
	c2,0,3-0.6,3-1.9c0-2.1-5.4-6.4-16.3-12.7l-10.9,11.5H97.5v-3.6c2.4-0.9,3.6-1.9,3.6-3c0-1-1.2-2-3.6-3c4.4-2.7,6.6-7.4,6.6-14.1
	V53.6h28.4c-4.8,7.9-11,15.4-18.7,22.7l1.7,2.4c10.4-3.5,20.3-8,29.7-13.6c5.2-0.7,7.8-1.7,7.8-2.9c0-1.9-4.4-8-13.3-18.3l-9.1,6.6
	H98.1c1.1-1.4,1.7-2.8,1.7-4.2c0-0.9-0.2-1.8-0.5-2.7c11.9-2.2,23-5.1,33.2-8.7c3.2-0.5,4.8-1.3,4.8-2.4c0-2.1-3.8-7.1-11.5-15.1
	l-10.3,5.4H38.9l2.4,3.1h73.8c-5,4-11.4,8-19,12c-7.2-5.4-17.4-8.3-30.7-8.7l-0.9,2.2c8.1,4.3,14.1,9.4,18.1,15.3
	c1.2,1.9,2.5,3.2,3.8,3.8H23.8l2.4,3.1h44.7C59.9,64.9,43.5,76,21.7,86.8l1.6,2.6C48.1,83.2,69.8,73,88.4,59v15.7c0,2-1,3-3,3
	c-2.3,0-8.1-0.4-17.2-1.2l-0.3,3c10.5,1.6,15.7,4.8,15.7,9.7h-1.8v10.9H19l2.4,3.1H72.7z M18.4,285c6,11.7,9.9,17.6,11.6,17.6
	c1.2,0,1.9-2.1,2-6.1c6.7-5.6,13.1-12.1,19-19.4c7.8,16.9,22,25.4,42.3,25.4h59.2c0.6-6.7,3.6-12.6,9-17.8
	c-11.3,1-22.6,1.5-33.9,1.5H93.9c-19.3,0-32.2-4.9-38.8-14.7v-33.2c3.6-1.9,5.5-3.7,5.5-5.4c0-2-5-6.8-15.1-14.5l-9,9.7H18.4
	l1.8,3.1h18.1v41C32.7,276.6,26,280.9,18.4,285L18.4,285z M29.4,172.9c6.1,3,9.8,8.9,11.3,17.7c0.7,4.5,2.9,6.7,6.6,6.7
	c3.3,0,5.9-1.2,7.8-3.7c1.4-1.8,2.1-4.1,2.1-7.1c0-9.7-9.1-14.9-27.3-15.5L29.4,172.9z M58.8,191.3l2.4,3.6H97
	c-0.6,5-1.6,10.2-3,15.6h-7.9l-16.4-7.2v75c0,1.7,1.7,2.4,5.2,2.4c3.8,0,7.4-1.4,10.6-4.3v-4.9h43.5v6.7c0,1.7,1.7,2.4,5.1,2.4
	c4,0,7.6-1.4,10.6-4.3v-55.6c4-2.3,6-4.3,6-6c0-2.2-4.8-6.5-14.5-12.7l-7.9,8.4H103c4.3-5.1,8.5-10.3,12.7-15.6H155
	c1.6,0,2.4-0.6,2.4-1.8c0-1.9-4.4-5.5-13.3-10.9l-10.3,9.1h-13.3c4.5-3.6,8.8-7.4,12.7-11.5c4-0.2,6.1-1.2,6.1-3
	c0-2.4-6.3-6.2-18.8-11.4c-2.3,9.4-4.9,18.1-7.8,26H97.1c2.3-1.5,3.5-3.8,3.5-7c0-9.4-7.9-14.8-23.6-16l-0.6,1.7
	c4.5,3.8,7.4,9.4,8.6,16.6c0.4,2.4,1.6,4,3.5,4.7H58.8z M128.9,229.8H85.5v-16.2h43.5V229.8z M85.5,249.1v-16.2h43.5v16.2H85.5z
	 M85.5,268.4v-16.2h43.5v16.2H85.5z"/>
</svg>
