<?xml version="1.0" encoding="utf-8"?>
<!-- Generator: Adobe Illustrator 26.1.0, SVG Export Plug-In . SVG Version: 6.00 Build 0)  -->
<svg version="1.1" id="Capa_1" xmlns="http://www.w3.org/2000/svg" xmlns:xlink="http://www.w3.org/1999/xlink" x="0px" y="0px"
	 width="180px" height="320px" viewBox="0 0 180 320" style="enable-background:new 0 0 180 320;" xml:space="preserve">
<style type="text/css">
	.st0{fill:#010202;}
</style>
<path class="st0" d="M73.5,100c-14.3,16.9-32.3,30.8-54.2,41.7l1.4,2.3c24.3-5.8,44.9-15,61.9-27.6v30.8c0,1.6,1.6,2.4,4.8,2.4
	c4.3,0,8-1.6,10.9-4.8v-36.8c12.1,18.4,28.6,30.9,49.5,37.4c2.7-6.8,7.3-12.4,13.9-16.9c-24.6-5.4-44.7-14.9-60.4-28.4h56.8
	c2,0,3-0.6,3-1.9c0-2.1-5.4-6.4-16.3-12.7L134,96.9H98.4v-3.6c2.4-0.9,3.6-1.9,3.6-3c0-1-1.2-2-3.6-3c4.4-2.7,6.6-7.4,6.6-14.1V50.4
	h28.4c-4.8,7.9-11,15.4-18.7,22.7l1.7,2.4c10.4-3.5,20.3-8,29.7-13.6c5.2-0.7,7.8-1.7,7.8-2.9c0-1.9-4.4-8-13.3-18.3l-9.1,6.6H98.9
	c1.1-1.4,1.7-2.8,1.7-4.2c0-0.9-0.2-1.8-0.5-2.7c11.9-2.2,23-5.1,33.2-8.7c3.2-0.5,4.8-1.3,4.8-2.4c0-2.1-3.8-7.1-11.5-15.1
	l-10.3,5.4H39.7l2.4,3.1h73.8c-5,4-11.4,8-19,12c-7.2-5.4-17.4-8.3-30.7-8.7l-0.9,2.2c8.1,4.3,14.1,9.4,18.1,15.3
	c1.2,1.9,2.5,3.2,3.8,3.7H24.6l2.4,3.1h44.7c-11,11.3-27.4,22.4-49.2,33.2l1.7,2.6C48.9,80,70.6,69.8,89.2,55.8v15.7c0,2-1,3-3,3
	c-2.3,0-8.1-0.4-17.2-1.2l-0.3,3c10.5,1.6,15.7,4.8,15.7,9.7h-1.8v10.9H19.8l2.4,3.1H73.5z M16.8,245l1.4,1.7
	c5.4-2.6,10.6-5.8,15.5-9.6v65.8c0,1.6,1.4,2.4,4.3,2.4c4.2,0,8.1-1.6,11.5-4.8V231c2-1.2,3-2.2,3-3c0-0.7-1.1-1.7-3.2-3
	c2.8-2.7,5.7-5.9,8.6-9.6c3.2-0.9,4.8-1.9,4.8-3c0-1.9-5.2-6.2-15.7-12.8C39,216,28.9,231.2,16.8,245L16.8,245z M17.7,204.5l1.5,2.3
	c14.4-7.9,26.5-16.7,36.3-26.6c3.2-1,4.8-2.3,4.8-3.7c0-1.6-5.4-5.4-16.3-11.5C37.1,180,28.3,193.2,17.7,204.5L17.7,204.5z
	 M55.4,277.9l2.9,1.1c8.8-15.4,14.9-30.6,18.4-45.6c1.6-1.1,2.4-2.1,2.4-3c0-1.9-5.8-4.1-17.5-6.6C61.3,242.5,59.2,260.6,55.4,277.9
	L55.4,277.9z M59.2,203.1l2.4,3.1h18.7V301c0,1.2,1.7,1.8,5,1.8c3.4,0,6.8-1.2,10.2-3.6v-93h25.9c2,0,3-0.6,3-1.9
	c0-1.7-4.2-5.4-12.7-10.9l-7.9,9.6h-8.4v-30.2c2.4-1.2,3.6-2.4,3.6-3.6c0-2.1-6.2-3.9-18.7-5.4v39.3H59.2z M98.7,224.8
	c3.8,12.1,5.7,26,5.7,41.8c0,5.6,2,8.4,6.1,8.4c3.5,0,6.1-1.6,7.9-4.7c1.2-2.3,1.8-4.9,1.8-7.8c0-12.6-6.4-25.5-19.1-38.8
	L98.7,224.8z M100.5,167.8c3.1,5.1,4.9,10.8,5.6,16.9c0.4,4.2,2.3,6.3,5.6,6.3c3.1,0,5.5-1.1,7-3.2c1.2-1.8,1.8-4,1.8-6.5
	c0-7-6.3-12-18.8-14.9L100.5,167.8z M110.4,286.5v3.2c10.9,1.7,16.5,6.7,16.9,14.9c12.5-1.3,18.7-8,18.7-19.9v-65.8h13.3
	c2,0,3-0.6,3-1.8c0-2-3.8-6.2-11.5-12.7l-9.7,11h-30.8l2.5,3.6h17.5v63.4c0,2.8-1,4.2-3,4.2H110.4z M121.4,177.2l2.4,3.1h30.8
	c2,0,3-0.6,3-1.9c0-1.6-4-5.5-12.1-11.5l-8.5,10.3H121.4z"/>
</svg>
